<?xml version="1.0" encoding="utf-8"?>
<!-- Generator: Adobe Illustrator 19.0.0, SVG Export Plug-In . SVG Version: 6.00 Build 0)  -->
<svg version="1.1" id="layer" xmlns="http://www.w3.org/2000/svg" xmlns:xlink="http://www.w3.org/1999/xlink" x="0px" y="0px"
	 viewBox="-153 -46 652 652" style="enable-background:new -153 -46 652 652;" xml:space="preserve">
<style type="text/css">
	.st0{fill:#EB5424;}
</style>
<path class="st0" d="M7.3,334.7L-12.1,275l50.8-36.9C51.2,276.4,38.7,311.9,7.3,334.7L7.3,334.7z M38.7,238.1l-19.4-59.7h-62.8
	l19.3,59.7C-24.2,238.1,38.7,238.1,38.7,238.1z M-43.5,178.4h-62.8l-19.3,59.7h62.8L-43.5,178.4z M-125.7,238.1
	c-12.4,38.3,0,73.8,31.4,96.6L-75,275L-125.7,238.1L-125.7,238.1z M-94.3,334.7l50.8,36.9l50.8-36.9l-50.8-36.9L-94.3,334.7
	L-94.3,334.7z"/>
<path d="M131.9,214.6c-8.1,0-15.2,5.3-17.5,13.1l-27.8,95.6h18.3l8.2-27.7c0.1-0.3,0.3-0.5,0.6-0.5h36.7c0.3,0,0.5,0.2,0.6,0.5
	l8,27.7h18.2l-27.9-95.6C147.1,219.9,140,214.6,131.9,214.6L131.9,214.6z M146.5,281.3c-0.1,0.2-0.3,0.2-0.5,0.2h-28
	c-0.2,0-0.4-0.1-0.5-0.2c-0.1-0.2-0.1-0.4,0-0.6l13.9-48.2c0.1-0.3,0.3-0.5,0.6-0.5c0.3,0.1,0.4,0.3,0.5,0.5l14,48.2
	C146.5,280.9,146.5,281.1,146.5,281.3L146.5,281.3z M231.5,254.8h17.6v68.6h-13.8l-1.9-5.8c-0.1-0.2-0.2-0.4-0.4-0.5
	c-0.2-0.1-0.4-0.1-0.6,0c-6.5,4.9-14.3,7.6-22.4,7.7c-9.2,0-17.6-5.5-21.2-14c-1.2-2.8-1.8-5.7-1.8-8.7v-47.3h17.6v46.3
	c0,5.5,4.6,10,10.1,10c5.7-0.3,11.3-1.8,16.3-4.5c0.2-0.1,0.4-0.3,0.3-0.5L231.5,254.8L231.5,254.8z M380.5,276v47.4H363V277
	c0-2.6-1.1-5.2-3-7c-1.9-1.9-4.4-2.9-7.1-2.9c-5.7,0.3-11.3,1.8-16.4,4.5c-0.2,0.1-0.3,0.3-0.3,0.6v51.2h-17.6V216.1h17.6v43
	c0,0.2,0.1,0.5,0.3,0.6c0.2,0.1,0.5,0.1,0.7,0c6.1-4,13.2-6.2,20.4-6.3c12.5,0.1,22.6,10.1,22.7,22.6H380.5z M290.9,254.8h10.7v13.6
	h-10.7c-0.2,0-0.3,0.1-0.5,0.2c-0.1,0.1-0.2,0.3-0.2,0.5v36.8c0,2.9,2.4,5.3,5.4,5.3c0,0,0,0,0,0c1.6,0,3.9,0,6-0.3v12.4
	c-3.5,1-7.1,1.6-10.7,1.5c-10,0-18.1-8-18.2-18v-37.8c0-0.4-0.3-0.6-0.7-0.7h-10.5v-13.6h10.7c0.4,0,0.6-0.3,0.7-0.7v-22.6h17.6
	v22.6C290.4,254.4,290.6,254.7,290.9,254.8L290.9,254.8z M459,229.9c-6-9.5-16.4-15.2-27.6-15.2c-11.2,0-21.6,5.7-27.6,15.2
	c-6.7,9.8-10.3,23.6-10.3,39.9c-0.6,14.1,3.1,28,10.4,40c6,9.5,16.4,15.2,27.6,15.2c11.2,0,21.6-5.7,27.6-15.2
	c6.8-9.9,10.3-23.7,10.3-39.9c0-16.2-3.6-30.2-10.3-40H459L459,229.9z M444.6,302c-3.4,6.2-7.7,9.2-13.1,9.2
	c-5.3,0-9.6-3.2-13.1-9.2c-4.6-10.1-6.8-21.1-6.3-32.2c-0.5-11.1,1.7-22.2,6.3-32.4c3.4-6.2,7.7-9.2,13-9.2c5.3,0,9.7,3,13.1,9.2
	c4.6,10.1,6.8,21.1,6.3,32.2C451.4,280.8,449.3,291.9,444.6,302z"/>
</svg>
